Units are S.I. units (second, meters, Newtons, ...)
Angles are in degrees.
name walk
datarows 96
datacolumns 13
range 2.500000 4.032258
endheader
time exo_pelvis_tx exo_pelvis_ty exo_pelvis_tz exo_pelvis_tilt exo_pelvis_list exo_pelvis_rotation exo_hip_r exo_hip_l exo_knee_r exo_knee_l r_ankle_coupling l_ankle_coupling
2.500000	-0.080262	0.934901	0.000000	0.000000	0.000000	0.000000	7.027170	15.683080	-18.263890	-30.715110	10.935560	15.031340
2.516129	-0.079456	0.934963	0.000000	0.000000	0.000000	0.000000	6.882930	15.902442	-18.093435	-31.241063	10.919023	15.337953
2.532258	-0.078651	0.935026	0.000000	0.000000	0.000000	0.000000	6.738689	16.121805	-17.922980	-31.767016	10.902486	15.644566
2.548387	-0.077845	0.935088	0.000000	0.000000	0.000000	0.000000	6.594449	16.341167	-17.752525	-32.292970	10.885950	15.951180
2.564516	-0.077039	0.935151	0.000000	0.000000	0.000000	0.000000	6.450209	16.560529	-17.582071	-32.818923	10.869413	16.257793
2.580645	-0.076234	0.935213	0.000000	0.000000	0.000000	0.000000	6.305968	16.779891	-17.411616	-33.344876	10.852876	16.564406
2.596774	-0.075428	0.935276	0.000000	0.000000	0.000000	0.000000	6.161728	16.999254	-17.241161	-33.870829	10.836340	16.871019
2.612903	-0.074622	0.935338	0.000000	0.000000	0.000000	0.000000	6.017488	17.218616	-17.070706	-34.396783	10.819803	17.177633
2.629032	-0.073816	0.935401	0.000000	0.000000	0.000000	0.000000	5.873247	17.437978	-16.900251	-34.922736	10.803266	17.484246
2.645161	-0.073011	0.935463	0.000000	0.000000	0.000000	0.000000	5.729007	17.657340	-16.729796	-35.448689	10.786730	17.790859
2.661290	-0.072205	0.935526	0.000000	0.000000	0.000000	0.000000	5.584767	17.876703	-16.559342	-35.974642	10.770193	18.097472
2.677419	-0.071399	0.935588	0.000000	0.000000	0.000000	0.000000	5.440526	18.096065	-16.388887	-36.500595	10.753656	18.404085
2.693548	-0.070593	0.935651	0.000000	0.000000	0.000000	0.000000	5.296286	18.315427	-16.218432	-37.026549	10.737120	18.710699
2.709677	-0.069788	0.935713	0.000000	0.000000	0.000000	0.000000	5.152046	18.534789	-16.047977	-37.552502	10.720583	19.017312
2.725806	-0.068982	0.935776	0.000000	0.000000	0.000000	0.000000	5.007805	18.754152	-15.877522	-38.078455	10.704046	19.323925
2.741935	-0.068176	0.935838	0.000000	0.000000	0.000000	0.000000	4.863565	18.973514	-15.707067	-38.604408	10.687510	19.630538
2.758065	-0.067371	0.935901	0.000000	0.000000	0.000000	0.000000	4.719325	19.192876	-15.536613	-39.130362	10.670973	19.937152
2.774194	-0.066565	0.935963	0.000000	0.000000	0.000000	0.000000	4.575085	19.412238	-15.366158	-39.656315	10.654436	20.243765
2.790323	-0.065759	0.936026	0.000000	0.000000	0.000000	0.000000	4.430844	19.631601	-15.195703	-40.182268	10.637900	20.550378
2.806452	-0.064953	0.936088	0.000000	0.000000	0.000000	0.000000	4.286604	19.850963	-15.025248	-40.708221	10.621363	20.856991
2.822581	-0.064148	0.936151	0.000000	0.000000	0.000000	0.000000	4.142364	20.070325	-14.854793	-41.234175	10.604826	21.163605
2.838710	-0.063342	0.936213	0.000000	0.000000	0.000000	0.000000	3.998123	20.289687	-14.684338	-41.760128	10.588290	21.470218
2.854839	-0.062536	0.936276	0.000000	0.000000	0.000000	0.000000	3.853883	20.509050	-14.513884	-42.286081	10.571753	21.776831
2.870968	-0.061730	0.936338	0.000000	0.000000	0.000000	0.000000	3.709643	20.728412	-14.343429	-42.812034	10.555216	22.083444
2.887097	-0.060925	0.936401	0.000000	0.000000	0.000000	0.000000	3.565402	20.947774	-14.172974	-43.337987	10.538680	22.390057
2.903226	-0.060119	0.936463	0.000000	0.000000	0.000000	0.000000	3.421162	21.167136	-14.002519	-43.863941	10.522143	22.696671
2.919355	-0.059313	0.936526	0.000000	0.000000	0.000000	0.000000	3.276922	21.386499	-13.832064	-44.389894	10.505606	23.003284
2.935484	-0.058508	0.936588	0.000000	0.000000	0.000000	0.000000	3.132681	21.605861	-13.661609	-44.915847	10.489070	23.309897
2.951613	-0.057702	0.936651	0.000000	0.000000	0.000000	0.000000	2.988441	21.825223	-13.491155	-45.441800	10.472533	23.616510
2.967742	-0.056896	0.936713	0.000000	0.000000	0.000000	0.000000	2.844201	22.044585	-13.320700	-45.967754	10.455996	23.923124
2.983871	-0.056090	0.936776	0.000000	0.000000	0.000000	0.000000	2.699960	22.263948	-13.150245	-46.493707	10.439460	24.229737
3.000000	-0.055285	0.936838	0.000000	0.000000	0.000000	0.000000	2.555720	22.483310	-12.979790	-47.019660	10.422923	24.536350
3.016129	-0.053234	0.936898	0.000000	0.000000	0.000000	0.000000	2.292126	22.474251	-12.744819	-46.687291	10.451548	24.213003
3.032258	-0.051184	0.936957	0.000000	0.000000	0.000000	0.000000	2.028532	22.465193	-12.509848	-46.354923	10.480172	23.889656
3.048387	-0.049134	0.937017	0.000000	0.000000	0.000000	0.000000	1.764937	22.456134	-12.274877	-46.022554	10.508797	23.566309
3.064516	-0.047083	0.937076	0.000000	0.000000	0.000000	0.000000	1.501343	22.447075	-12.039906	-45.690185	10.537422	23.242962
3.080645	-0.045033	0.937136	0.000000	0.000000	0.000000	0.000000	1.237749	22.438016	-11.804935	-45.357816	10.566046	22.919615
3.096774	-0.042983	0.937195	0.000000	0.000000	0.000000	0.000000	0.974155	22.428958	-11.569964	-45.025448	10.594671	22.596267
3.112903	-0.040932	0.937255	0.000000	0.000000	0.000000	0.000000	0.710561	22.419899	-11.334993	-44.693079	10.623295	22.272920
3.129032	-0.038882	0.937314	0.000000	0.000000	0.000000	0.000000	0.446966	22.410840	-11.100022	-44.360710	10.651920	21.949573
3.145161	-0.036832	0.937374	0.000000	0.000000	0.000000	0.000000	0.183372	22.401782	-10.865051	-44.028342	10.680545	21.626226
3.161290	-0.034781	0.937433	0.000000	0.000000	0.000000	0.000000	-0.080222	22.392723	-10.630080	-43.695973	10.709169	21.302879
3.177419	-0.032731	0.937493	0.000000	0.000000	0.000000	0.000000	-0.343816	22.383664	-10.395109	-43.363604	10.737794	20.979532
3.193548	-0.030681	0.937552	0.000000	0.000000	0.000000	0.000000	-0.607410	22.374605	-10.160138	-43.031235	10.766419	20.656185
3.209677	-0.028630	0.937612	0.000000	0.000000	0.000000	0.000000	-0.871005	22.365547	-9.925167	-42.698867	10.795043	20.332838
3.225806	-0.026580	0.937671	0.000000	0.000000	0.000000	0.000000	-1.134599	22.356488	-9.690196	-42.366498	10.823668	20.009491
3.241935	-0.024530	0.937731	0.000000	0.000000	0.000000	0.000000	-1.398193	22.347429	-9.455225	-42.034129	10.852292	19.686144
3.258065	-0.022479	0.937790	0.000000	0.000000	0.000000	0.000000	-1.661787	22.338371	-9.220255	-41.701761	10.880917	19.362796
3.274194	-0.020429	0.937849	0.000000	0.000000	0.000000	0.000000	-1.925381	22.329312	-8.985284	-41.369392	10.909542	19.039449
3.290323	-0.018379	0.937909	0.000000	0.000000	0.000000	0.000000	-2.188975	22.320253	-8.750313	-41.037023	10.938166	18.716102
3.306452	-0.016328	0.937968	0.000000	0.000000	0.000000	0.000000	-2.452570	22.311195	-8.515342	-40.704655	10.966791	18.392755
3.322581	-0.014278	0.938028	0.000000	0.000000	0.000000	0.000000	-2.716164	22.302136	-8.280371	-40.372286	10.995416	18.069408
3.338710	-0.012227	0.938087	0.000000	0.000000	0.000000	0.000000	-2.979758	22.293077	-8.045400	-40.039917	11.024040	17.746061
3.354839	-0.010177	0.938147	0.000000	0.000000	0.000000	0.000000	-3.243352	22.284018	-7.810429	-39.707548	11.052665	17.422714
3.370968	-0.008127	0.938206	0.000000	0.000000	0.000000	0.000000	-3.506946	22.274960	-7.575458	-39.375180	11.081289	17.099367
3.387097	-0.006076	0.938266	0.000000	0.000000	0.000000	0.000000	-3.770541	22.265901	-7.340487	-39.042811	11.109914	16.776020
3.403226	-0.004026	0.938325	0.000000	0.000000	0.000000	0.000000	-4.034135	22.256842	-7.105516	-38.710442	11.138539	16.452673
3.419355	-0.001976	0.938385	0.000000	0.000000	0.000000	0.000000	-4.297729	22.247784	-6.870545	-38.378074	11.167163	16.129325
3.435484	0.000075	0.938444	0.000000	0.000000	0.000000	0.000000	-4.561323	22.238725	-6.635574	-38.045705	11.195788	15.805978
3.451613	0.002125	0.938504	0.000000	0.000000	0.000000	0.000000	-4.824917	22.229666	-6.400603	-37.713336	11.224413	15.482631
3.467742	0.004175	0.938563	0.000000	0.000000	0.000000	0.000000	-5.088512	22.220607	-6.165632	-37.380967	11.253037	15.159284
3.483871	0.006226	0.938623	0.000000	0.000000	0.000000	0.000000	-5.352106	22.211549	-5.930661	-37.048599	11.281662	14.835937
3.500000	0.008276	0.938682	0.000000	0.000000	0.000000	0.000000	-5.615700	22.202490	-5.695690	-36.716230	11.310287	14.512590
3.516129	0.010598	0.938221	0.000000	0.000000	0.000000	0.000000	-5.879297	22.095914	-5.525235	-36.226932	11.403427	14.129868
3.532258	0.012920	0.937759	0.000000	0.000000	0.000000	0.000000	-6.142894	21.989338	-5.354780	-35.737634	11.496568	13.747145
3.548387	0.015242	0.937297	0.000000	0.000000	0.000000	0.000000	-6.406491	21.882763	-5.184326	-35.248336	11.589709	13.364423
3.564516	0.017564	0.936836	0.000000	0.000000	0.000000	0.000000	-6.670088	21.776187	-5.013871	-34.759038	11.682850	12.981700
3.580645	0.019886	0.936374	0.000000	0.000000	0.000000	0.000000	-6.933685	21.669611	-4.843416	-34.269740	11.775990	12.598978
3.596774	0.022208	0.935913	0.000000	0.000000	0.000000	0.000000	-7.197283	21.563035	-4.672961	-33.780442	11.869131	12.216256
3.612903	0.024530	0.935451	0.000000	0.000000	0.000000	0.000000	-7.460880	21.456459	-4.502506	-33.291144	11.962272	11.833533
3.629032	0.026852	0.934990	0.000000	0.000000	0.000000	0.000000	-7.724477	21.349884	-4.332051	-32.801845	12.055413	11.450811
3.645161	0.029174	0.934528	0.000000	0.000000	0.000000	0.000000	-7.988074	21.243308	-4.161597	-32.312547	12.148553	11.068089
3.661290	0.031496	0.934066	0.000000	0.000000	0.000000	0.000000	-8.251671	21.136732	-3.991142	-31.823249	12.241694	10.685366
3.677419	0.033818	0.933605	0.000000	0.000000	0.000000	0.000000	-8.515268	21.030156	-3.820687	-31.333951	12.334835	10.302644
3.693548	0.036140	0.933143	0.000000	0.000000	0.000000	0.000000	-8.778865	20.923580	-3.650232	-30.844653	12.427976	9.919921
3.709677	0.038462	0.932682	0.000000	0.000000	0.000000	0.000000	-9.042462	20.817005	-3.479777	-30.355355	12.521116	9.537199
3.725806	0.040784	0.932220	0.000000	0.000000	0.000000	0.000000	-9.306059	20.710429	-3.309323	-29.866057	12.614257	9.154477
3.741935	0.043106	0.931759	0.000000	0.000000	0.000000	0.000000	-9.569656	20.603853	-3.138868	-29.376759	12.707398	8.771754
3.758065	0.045428	0.931297	0.000000	0.000000	0.000000	0.000000	-9.833254	20.497277	-2.968413	-28.887461	12.800539	8.389032
3.774194	0.047750	0.930835	0.000000	0.000000	0.000000	0.000000	-10.096851	20.390701	-2.797958	-28.398163	12.893679	8.006309
3.790323	0.050072	0.930374	0.000000	0.000000	0.000000	0.000000	-10.360448	20.284125	-2.627503	-27.908865	12.986820	7.623587
3.806452	0.052394	0.929912	0.000000	0.000000	0.000000	0.000000	-10.624045	20.177550	-2.457048	-27.419567	13.079961	7.240865
3.822581	0.054716	0.929451	0.000000	0.000000	0.000000	0.000000	-10.887642	20.070974	-2.286594	-26.930269	13.173102	6.858142
3.838710	0.057038	0.928989	0.000000	0.000000	0.000000	0.000000	-11.151239	19.964398	-2.116139	-26.440971	13.266242	6.475420
3.854839	0.059360	0.928528	0.000000	0.000000	0.000000	0.000000	-11.414836	19.857822	-1.945684	-25.951673	13.359383	6.092697
3.870968	0.061682	0.928066	0.000000	0.000000	0.000000	0.000000	-11.678433	19.751246	-1.775229	-25.462375	13.452524	5.709975
3.887097	0.064004	0.927604	0.000000	0.000000	0.000000	0.000000	-11.942030	19.644671	-1.604774	-24.973076	13.545665	5.327253
3.903226	0.066326	0.927143	0.000000	0.000000	0.000000	0.000000	-12.205627	19.538095	-1.434320	-24.483778	13.638805	4.944530
3.919355	0.068648	0.926681	0.000000	0.000000	0.000000	0.000000	-12.469225	19.431519	-1.263865	-23.994480	13.731946	4.561808
3.935484	0.070970	0.926220	0.000000	0.000000	0.000000	0.000000	-12.732822	19.324943	-1.093410	-23.505182	13.825087	4.179086
3.951613	0.073292	0.925758	0.000000	0.000000	0.000000	0.000000	-12.996419	19.218367	-0.922955	-23.015884	13.918228	3.796363
3.967742	0.075614	0.925297	0.000000	0.000000	0.000000	0.000000	-13.260016	19.111792	-0.752500	-22.526586	14.011368	3.413641
3.983871	0.077936	0.924835	0.000000	0.000000	0.000000	0.000000	-13.523613	19.005216	-0.582046	-22.037288	14.104509	3.030918
4.000000	0.080258	0.924373	0.000000	0.000000	0.000000	0.000000	-13.787210	18.898640	-0.411591	-21.547990	14.197650	2.648196
4.016129	0.084386	0.924631	0.000000	0.000000	0.000000	0.000000	-12.836555	18.515689	-1.389124	-21.442051	14.224543	2.915530
4.032258	0.088513	0.924890	0.000000	0.000000	0.000000	0.000000	-11.885901	18.132739	-2.366656	-21.336113	14.251436	3.182865
